#!OML:ASF H:\LiuWeirdWalks\Patient Classification 1\Patient 1\Session 1\male.ASF
:FULLY-SPECIFIED
:DEGREES
840
root 2.05196 17.914 -5.5526 5.2263 8.33214 4.07159
lowerback 9.72502 -1.26788 -5.6209
upperback 0.208752 -2.09256 4.19103
thorax -4.88669 -0.854933 7.9205
lowerneck -20.4609 -0.0740105 6.88626
upperneck 15.8067 0.163823 -11.424
head 8.28993 -0.709115 -5.01395
rclavicle -9.14409e-015 6.36111e-015
rhumerus -12.8549 -28.4805 -15.2263
rradius 31.1851
rwrist 0.118908
rhand -21.9278 -6.23616
rfingers 7.12502
rthumb 4.4785 -36.1688
lclavicle -9.14409e-015 6.36111e-015
lhumerus -19.6343 27.4586 23.3669
lradius 39.1631
lwrist 8.78691
lhand -19.9337 -3.85334
lfingers 7.12502
lthumb 6.40386 26.0299
rfemur -29.9182 -6.00262 9.57484
rtibia 26.0694
rfoot -2.4117 -18.7554
rtoes -10.5973
lfemur 7.76143 -0.569047 -24.8516
ltibia 12.4247
lfoot -8.8179 14.9457
ltoes -16.4842
841
root 2.02705 17.9204 -5.46533 5.26121 8.4732 4.15351
lowerback 9.69834 -1.29366 -5.38669
upperback 0.169939 -2.09285 4.31154
thorax -4.91638 -0.856652 7.91548
lowerneck -20.4716 -0.0708636 6.94044
upperneck 15.784 0.207785 -11.7129
head 8.29016 -0.715246 -5.11853
rclavicle 1.03368e-014 3.33958e-014
rhumerus -12.9809 -28.5084 -15.2674
rradius 31.1903
rwrist 0.151838
rhand -21.9454 -6.20032
rfingers 7.12502
rthumb 4.46151 -36.1333
lclavicle 1.03368e-014 3.33958e-014
lhumerus -19.665 27.4443 23.4247
lradius 39.2615
lwrist 8.75653
lhand -19.9518 -3.92113
lfingers 7.12502
lthumb 6.38638 25.9626
rfemur -29.7415 -5.69599 9.48244
rtibia 26.1996
rfoot -1.45651 -18.8042
rtoes -10.1531
lfemur 7.98785 -0.662727 -24.746
ltibia 12.4353
lfoot -8.5298 14.65
ltoes -17.0323
842
root 2.00216 17.9295 -5.37753 5.30179 8.57349 4.19892
lowerback 9.67369 -1.30694 -5.10897
upperback 0.127574 -2.07121 4.43823
thorax -4.95604 -0.847976 7.88933
lowerneck -20.4697 -0.0851496 6.96319
upperneck 15.7546 0.232949 -11.9816
head 8.28415 -0.729673 -5.21256
rclavicle 1.49089e-014 4.92986e-014
rhumerus -13.1124 -28.5524 -15.3083
rradius 31.1907
rwrist 0.168406
rhand -21.9926 -6.23529
rfingers 7.12502
rthumb 4.41593 -36.1693
lclavicle 1.49089e-014 4.92986e-014
lhumerus -19.725 27.4132 23.479
lradius 39.3901
lwrist 8.78927
lhand -19.9735 -3.95095
lfingers 7.12502
lthumb 6.36542 25.9334
rfemur -29.6114 -5.42925 9.45267
rtibia 26.3212
rfoot -0.480654 -18.8452
rtoes -9.51346
lfemur 8.15334 -0.753646 -24.6088
ltibia 12.5374
lfoot -8.22124 14.3672
ltoes -17.6042
843
root 1.97706 17.9403 -5.28936 5.35453 8.62892 4.21129
lowerback 9.64001 -1.30841 -4.79455
upperback 0.0861233 -2.0291 4.56871
thorax -4.99413 -0.830195 7.84282
lowerneck -20.4589 -0.109563 6.95419
upperneck 15.7002 0.246038 -12.2213
head 8.26703 -0.748219 -5.2915
rclavicle 5.76476e-015 -3.81667e-014
rhumerus -13.2532 -28.6067 -15.3512
rradius 31.1869
rwrist 0.191484
rhand -22.0389 -6.26757
rfingers 7.12502
rthumb 4.37118 -36.2025
lclavicle 5.76476e-015 -3.81667e-014
lhumerus -19.8108 27.374 23.5165
lradius 39.535
lwrist 8.87147
lhand -20.0054 -3.96685
lfingers 7.12502
lthumb 6.33457 25.9184
rfemur -29.5295 -5.21153 9.49072
rtibia 26.4456
rfoot 0.434745 -18.847
rtoes -8.72755
lfemur 8.23726 -0.838214 -24.4434
ltibia 12.7607
lfoot -7.91271 14.1039
ltoes -18.1636
844
root 1.95145 17.952 -5.20072 5.41592 8.65297 4.20829
lowerback 9.61165 -1.3028 -4.4646
upperback 0.036844 -1.97584 4.69907
thorax -5.04561 -0.806645 7.78629
lowerneck -20.4231 -0.131971 6.94311
upperneck 15.6001 0.258066 -12.4536
head 8.23024 -0.765307 -5.36539
rclavicle 1.19271e-015 -1.59028e-015
rhumerus -13.4097 -28.616 -15.3999
rradius 31.1912
rwrist 0.176165
rhand -22.1055 -6.33786
rfingers 7.12502
rthumb 4.30694 -36.2741
lclavicle 1.19271e-015 -1.59028e-015
lhumerus -19.9347 27.288 23.5301
lradius 39.7061
lwrist 9.0242
lhand -20.0475 -3.91307
lfingers 7.12502
lthumb 6.29396 25.9734
rfemur -29.4773 -5.05163 9.57839
rtibia 26.5965
rfoot 1.19677 -18.799
rtoes -7.82712
lfemur 8.24399 -0.899881 -24.2607
ltibia 13.1018
lfoot -7.60247 13.8385
ltoes -18.6817
845
root 1.925 17.9643 -5.11184 5.49526 8.65389 4.22096
lowerback 9.58014 -1.29372 -4.15082
upperback -0.0119818 -1.92017 4.81929
thorax -5.09473 -0.781938 7.72763
lowerneck -20.4389 -0.146697 6.93676
upperneck 15.5126 0.27548 -12.6758
head 8.2074 -0.779909 -5.43749
rclavicle -2.38542e-015 0
rhumerus -13.5511 -28.6296 -15.473
rradius 31.1822
rwrist 0.127599
rhand -22.195 -6.40585
rfingers 7.12502
rthumb 4.22051 -36.3438
lclavicle -2.38542e-015 0
lhumerus -20.0832 27.2123 23.507
lradius 39.8673
lwrist 9.15287
lhand -20.0635 -3.87717
lfingers 7.12502
lthumb 6.27852 26.0098
rfemur -29.4495 -4.95035 9.67889
rtibia 26.7944
rfoot 1.73324 -18.7122
rtoes -6.85623
lfemur 8.17469 -0.952999 -24.0939
ltibia 13.5498
lfoot -7.28457 13.5696
ltoes -19.1942
846
root 1.89801 17.9766 -5.02219 5.57931 8.63558 4.28245
lowerback 9.55506 -1.2844 -3.88644
upperback -0.0579644 -1.87089 4.92151
thorax -5.14215 -0.759713 7.67917
lowerneck -20.5247 -0.159911 6.88149
upperneck 15.4944 0.299379 -12.8326
head 8.22055 -0.790514 -5.48177
rclavicle 1.07344e-014 7.95139e-015
rhumerus -13.6711 -28.6473 -15.5682
rradius 31.1512
rwrist 0.121341
rhand -22.253 -6.3977
rfingers 7.12502
rthumb 4.16448 -36.3367
lclavicle 1.07344e-014 7.95139e-015
lhumerus -20.2489 27.1533 23.4428
lradius 39.9948
lwrist 9.24562
lhand -20.0561 -3.85608
lfingers 7.12502
lthumb 6.28562 26.0307
rfemur -29.4227 -4.92185 9.75256
rtibia 27.0553
rfoot 2.02169 -18.5685
rtoes -5.92239
lfemur 8.06791 -1.01696 -23.9832
ltibia 14.0693
lfoot -6.95237 13.3062
ltoes -19.6744
847
root 1.87002 17.9889 -4.93225 5.67225 8.58775 4.40161
lowerback 9.52863 -1.27115 -3.69039
upperback -0.0931203 -1.82544 5.00135
thorax -5.17515 -0.738905 7.64616
lowerneck -20.6546 -0.159487 6.8275
upperneck 15.5047 0.338324 -12.9683
head 8.25261 -0.793427 -5.51918
rclavicle -2.26615e-014 9.54166e-015
rhumerus -13.7655 -28.6726 -15.6977
rradius 31.1067
rwrist 0.152692
rhand -22.2756 -6.34506
rfingers 7.12502
rthumb 4.1426 -36.2845
lclavicle -2.26615e-014 9.54166e-015
lhumerus -20.42 27.1092 23.3362
lradius 40.0985
lwrist 9.33715
lhand -20.0214 -3.85602
lfingers 7.12502
lthumb 6.31914 26.0297
rfemur -29.4036 -4.92459 9.77836
rtibia 27.3817
rfoot 2.08387 -18.3978
rtoes -5.05528
lfemur 7.93146 -1.08215 -23.9388
ltibia 14.6308
lfoot -6.59016 13.0438
ltoes -20.1549
848
root 1.84078 18.0013 -4.84143 5.7539 8.51823 4.57157
lowerback 9.50953 -1.25384 -3.56195
upperback -0.110784 -1.7836 5.06409
thorax -5.19159 -0.719485 7.63405
lowerneck -20.7981 -0.147702 6.79468
upperneck 15.5149 0.387234 -13.1087
head 8.28822 -0.791307 -5.56108
rclavicle -4.81059e-014 1.59028e-015
rhumerus -13.8462 -28.6994 -15.842
rradius 31.0555
rwrist 0.224906
rhand -22.2487 -6.2443
rfingers 7.12502
rthumb 4.16858 -36.1833
lclavicle -4.81059e-014 1.59028e-015
lhumerus -20.5833 27.1029 23.2009
lradius 40.1612
lwrist 9.36382
lhand -19.961 -3.89053
lfingers 7.12502
lthumb 6.37744 25.9935
rfemur -29.3645 -4.94707 9.75605
rtibia 27.7601
rfoot 1.9587 -18.2112
rtoes -4.26176
lfemur 7.80152 -1.1596 -23.9518
ltibia 15.209
lfoot -6.20418 12.7818
ltoes -20.6474
